<svg width="270" height="155" viewBox="0 0 270 155" fill="none" xmlns="http://www.w3.org/2000/svg">
<path d="M263.912 152.551C241.754 164.143 234.175 130.819 209.384 130.819C184.592 130.819 184.592 153.772 159.791 153.772C134.99 153.772 135 130.819 110.199 130.819C85.3975 130.819 85.4076 153.772 60.6063 153.772C35.8051 153.772 38.108 143.6 15.9501 132.04C4.83609 126.228 0 129.337 0 116.39C0 103.442 22.0277 103.432 22.0277 90.4737C22.0277 77.5157 0 77.5157 0 64.5472C0 51.5787 22.0277 51.5891 22.0277 38.6311C22.0277 25.673 -5.0063 8.26002 6.07765 2.44872C28.2356 -9.14258 35.8151 24.1811 60.6063 24.1811C85.3975 24.1811 85.4076 1.22804 110.199 1.22804C134.99 1.22804 134.99 24.1811 159.791 24.1811C184.592 24.1811 184.592 1.22804 209.384 1.22804C234.175 1.22804 231.882 11.3795 254.05 22.9604C265.164 28.7717 270 25.6626 270 38.6102C270 51.5578 247.972 51.5683 247.972 64.5263C247.972 77.4844 270 77.4948 270 90.4528C270 103.411 244.888 107.219 248.423 119.666C253.8 138.519 275.036 146.73 263.912 152.551Z" fill="#6562F5"/>
</svg>
