<svg width="285" height="222" viewBox="0 0 285 222" fill="none" xmlns="http://www.w3.org/2000/svg">
<path d="M245.363 117.534C243.985 120.271 240.446 122.166 234.213 122.621C228.077 123.068 219.882 122.062 210.141 119.652C190.687 114.837 165.523 104.535 139.301 89.851C113.079 75.1671 90.8923 58.9537 76.2159 44.6555C68.8671 37.496 63.4877 30.8998 60.4032 25.2894C57.2701 19.5905 56.7781 15.4378 58.1568 12.7009C59.5354 9.96396 63.0742 8.06842 69.3067 7.61422C75.4426 7.16707 83.6382 8.17261 93.3792 10.5832C112.833 15.3974 137.997 25.6999 164.219 40.3838C190.441 55.0677 212.628 71.2811 227.304 85.5793C234.653 92.7388 240.032 99.335 243.117 104.945C246.25 110.644 246.742 114.797 245.363 117.534Z" stroke="black" stroke-width="4"/>
<path d="M234.78 138.543C233.402 141.28 229.863 143.175 223.631 143.629C217.495 144.076 209.299 143.071 199.558 140.66C180.104 135.846 154.94 125.544 128.718 110.86C102.496 96.1758 80.3094 79.9624 65.633 65.6642C58.2842 58.5047 52.9048 51.9085 49.8203 46.2981C46.6872 40.5992 46.1952 36.4465 47.5739 33.7096C48.9526 30.9727 52.4913 29.0771 58.7239 28.6229C64.8597 28.1758 73.0553 29.1813 82.7963 31.5919C102.25 36.4061 127.414 46.7086 153.636 61.3925C179.858 76.0764 202.045 92.2898 216.721 106.588C224.07 113.747 229.45 120.344 232.534 125.954C235.667 131.653 236.159 135.806 234.78 138.543Z" stroke="black" stroke-width="4"/>
<path d="M226.843 154.299C225.465 157.036 221.926 158.932 215.693 159.386C209.557 159.833 201.362 158.827 191.621 156.417C172.167 151.603 147.003 141.3 120.781 126.616C94.559 111.932 72.3723 95.7189 57.6959 81.4207C50.347 74.2612 44.9677 67.665 41.8832 62.0546C38.7501 56.3557 38.2581 52.203 39.6367 49.4661C41.0154 46.7292 44.5541 44.8336 50.7867 44.3794C56.9226 43.9323 65.1182 44.9378 74.8592 47.3484C94.3129 52.1626 119.477 62.4651 145.699 77.149C171.921 91.8329 194.108 108.046 208.784 122.344C216.133 129.504 221.512 136.1 224.597 141.711C227.73 147.409 228.222 151.562 226.843 154.299Z" stroke="black" stroke-width="4"/>
</svg>
