<svg width="44" height="1043" viewBox="0 0 44 1043" fill="none" xmlns="http://www.w3.org/2000/svg">
<rect x="6" y="251.5" width="32" height="32" rx="16" fill="#0E4714"/>
<path d="M23.1953 261.062V272.5H21.75V262.867L18.8359 263.93V262.625L22.9688 261.062H23.1953Z" fill="#DCDCDC"/>
<rect x="23" y="283.5" width="306.5" height="2" transform="rotate(90 23 283.5)" fill="#0E4714"/>
<rect x="6" y="590" width="32" height="32" rx="16" fill="#6562F5"/>
<path d="M25.8984 609.812V611H18.4531V609.961L22.1797 605.812C22.638 605.302 22.9922 604.87 23.2422 604.516C23.4974 604.156 23.6745 603.836 23.7734 603.555C23.8776 603.268 23.9297 602.977 23.9297 602.68C23.9297 602.305 23.8516 601.966 23.6953 601.664C23.5443 601.357 23.3203 601.112 23.0234 600.93C22.7266 600.747 22.3672 600.656 21.9453 600.656C21.4401 600.656 21.0182 600.755 20.6797 600.953C20.3464 601.146 20.0964 601.417 19.9297 601.766C19.763 602.115 19.6797 602.516 19.6797 602.969H18.2344C18.2344 602.328 18.375 601.742 18.6562 601.211C18.9375 600.68 19.3542 600.258 19.9062 599.945C20.4583 599.628 21.138 599.469 21.9453 599.469C22.6641 599.469 23.2786 599.596 23.7891 599.852C24.2995 600.102 24.6901 600.456 24.9609 600.914C25.237 601.367 25.375 601.898 25.375 602.508C25.375 602.841 25.3177 603.18 25.2031 603.523C25.0938 603.862 24.9401 604.201 24.7422 604.539C24.5495 604.878 24.3229 605.211 24.0625 605.539C23.8073 605.867 23.5339 606.19 23.2422 606.508L20.1953 609.812H25.8984Z" fill="#444444"/>
<rect x="23" y="622" width="161" height="2" transform="rotate(90 23 622)" fill="#6562F5"/>
<rect x="6" y="783" width="32" height="32" rx="16" fill="#CADD57"/>
<path d="M20.5547 797.602H21.5859C22.0911 797.602 22.5078 797.518 22.8359 797.352C23.1693 797.18 23.4167 796.948 23.5781 796.656C23.7448 796.359 23.8281 796.026 23.8281 795.656C23.8281 795.219 23.7552 794.852 23.6094 794.555C23.4635 794.258 23.2448 794.034 22.9531 793.883C22.6615 793.732 22.2917 793.656 21.8438 793.656C21.4375 793.656 21.0781 793.737 20.7656 793.898C20.4583 794.055 20.2161 794.279 20.0391 794.57C19.8672 794.862 19.7812 795.206 19.7812 795.602H18.3359C18.3359 795.023 18.4818 794.497 18.7734 794.023C19.0651 793.549 19.474 793.172 20 792.891C20.5312 792.609 21.1458 792.469 21.8438 792.469C22.5312 792.469 23.1328 792.591 23.6484 792.836C24.1641 793.076 24.5651 793.435 24.8516 793.914C25.138 794.388 25.2812 794.979 25.2812 795.688C25.2812 795.974 25.2135 796.281 25.0781 796.609C24.9479 796.932 24.7422 797.234 24.4609 797.516C24.1849 797.797 23.8255 798.029 23.3828 798.211C22.9401 798.388 22.4089 798.477 21.7891 798.477H20.5547V797.602ZM20.5547 798.789V797.922H21.7891C22.513 797.922 23.112 798.008 23.5859 798.18C24.0599 798.352 24.4323 798.581 24.7031 798.867C24.9792 799.154 25.1719 799.469 25.2812 799.812C25.3958 800.151 25.4531 800.49 25.4531 800.828C25.4531 801.359 25.362 801.831 25.1797 802.242C25.0026 802.654 24.75 803.003 24.4219 803.289C24.099 803.576 23.7188 803.792 23.2812 803.938C22.8438 804.083 22.3672 804.156 21.8516 804.156C21.3568 804.156 20.8906 804.086 20.4531 803.945C20.0208 803.805 19.638 803.602 19.3047 803.336C18.9714 803.065 18.7109 802.734 18.5234 802.344C18.3359 801.948 18.2422 801.497 18.2422 800.992H19.6875C19.6875 801.388 19.7734 801.734 19.9453 802.031C20.1224 802.328 20.3724 802.56 20.6953 802.727C21.0234 802.888 21.4089 802.969 21.8516 802.969C22.2943 802.969 22.6745 802.893 22.9922 802.742C23.3151 802.586 23.5625 802.352 23.7344 802.039C23.9115 801.727 24 801.333 24 800.859C24 800.385 23.901 799.997 23.7031 799.695C23.5052 799.388 23.224 799.161 22.8594 799.016C22.5 798.865 22.0755 798.789 21.5859 798.789H20.5547Z" fill="#0E4714"/>
</svg>
